<svg xmlns="http://www.w3.org/2000/svg" width="500" height="500" viewBox="0 0 500 500">
<g>
<path d="M 134.00 413.62 C124.36,414.87 110.42,415.32 73.00,415.58 C46.33,415.77 23.37,415.56 21.99,415.11 C10.90,411.53 4.93,402.80 6.38,392.24 C7.20,386.26 8.42,384.22 22.16,365.80 C34.37,349.42 39.03,343.87 37.73,347.25 C36.94,349.33 38.10,350.18 40.05,348.95 C40.85,348.44 41.01,348.02 40.42,348.02 C39.82,348.01 39.33,347.33 39.33,346.52 C39.33,345.38 39.65,345.29 40.70,346.16 C42.24,347.44 47.52,345.65 46.60,344.16 C46.32,343.71 46.74,343.33 47.54,343.33 C48.34,343.33 49.00,343.70 49.00,344.14 C49.00,344.59 50.15,344.51 51.57,343.98 C52.98,343.44 56.61,343.00 59.64,343.00 C63.20,343.00 65.67,342.47 66.64,341.50 C68.55,339.60 71.71,339.60 75.36,341.51 C76.94,342.33 79.53,343.00 81.11,343.00 C82.70,343.00 84.00,343.42 84.00,343.93 C84.00,344.44 85.01,345.00 86.25,345.18 C88.18,345.46 88.46,346.01 88.18,349.15 C88.00,351.28 88.38,353.12 89.10,353.56 C90.55,354.46 92.73,351.98 101.03,340.00 C104.28,335.33 111.65,324.75 117.41,316.50 C123.17,308.25 129.83,298.69 132.20,295.26 C134.56,291.83 141.23,282.35 147.00,274.20 C152.77,266.05 163.27,251.20 170.33,241.20 C177.38,231.20 183.48,222.82 183.88,222.58 C185.01,221.88 186.16,223.00 192.53,231.06 C195.81,235.22 202.55,243.69 207.50,249.89 C212.45,256.09 217.62,262.69 219.00,264.57 C223.57,270.81 226.74,270.12 236.96,260.66 C239.18,258.60 241.00,257.27 241.00,257.69 C241.00,258.12 242.21,256.67 243.69,254.48 C247.14,249.37 249.13,247.86 250.69,249.16 C252.33,250.52 250.89,253.66 244.32,263.00 C241.42,267.12 238.11,271.85 236.96,273.50 C216.34,303.18 208.06,313.88 190.76,333.11 C182.56,342.23 164.73,359.40 160.08,362.65 C158.94,363.46 158.00,364.56 158.00,365.10 C158.00,366.44 152.82,370.93 151.22,370.97 C149.67,371.01 140.00,378.11 140.00,379.21 C140.00,379.65 139.60,380.00 139.11,380.00 C138.62,380.00 134.23,382.50 129.36,385.56 C111.86,396.55 97.36,402.82 67.50,412.31 C62.74,413.82 62.69,413.87 66.50,413.34 C74.01,412.28 87.14,408.99 91.32,407.11 C93.62,406.08 96.58,404.91 97.90,404.50 C105.50,402.18 131.11,388.83 138.59,383.30 C140.29,382.04 141.97,381.31 142.34,381.67 C142.70,382.04 143.00,381.87 143.00,381.30 C143.00,380.14 151.08,374.44 152.25,374.78 C152.66,374.90 153.00,374.55 153.00,374.00 C153.00,373.45 153.71,373.00 154.57,373.00 C155.44,373.00 156.82,372.33 157.64,371.50 C158.47,370.67 158.87,370.00 158.53,370.00 C158.20,370.00 158.50,369.37 159.21,368.61 C160.14,367.60 160.70,367.54 161.23,368.36 C161.69,369.07 161.98,368.79 161.98,367.61 C162.00,365.72 164.61,363.08 166.50,363.05 C167.05,363.04 166.82,363.47 166.00,364.00 C165.18,364.53 164.98,364.98 165.57,364.98 C166.83,365.00 171.05,360.38 170.38,359.71 C170.12,359.46 171.01,359.25 172.36,359.25 C173.83,359.25 176.05,360.58 177.98,362.62 C181.36,366.21 184.59,366.90 188.01,364.76 C189.60,363.77 190.41,363.78 192.04,364.79 C193.16,365.49 194.47,365.82 194.96,365.53 C195.44,365.23 196.06,365.55 196.34,366.24 C196.74,367.24 196.86,367.24 196.92,366.25 C197.01,364.83 201.59,364.53 202.43,365.89 C203.47,367.57 210.57,368.22 226.75,368.12 C241.85,368.02 243.15,368.15 245.04,370.04 C247.67,372.67 254.51,372.14 256.60,369.17 C257.99,367.18 262.62,367.20 261.39,369.18 C261.06,369.70 261.41,370.05 262.15,369.95 C265.72,369.46 266.88,370.05 266.47,372.14 C266.25,373.31 265.94,374.38 265.78,374.52 C265.14,375.08 248.95,383.03 248.25,383.12 C247.84,383.17 245.71,384.13 243.51,385.25 C239.41,387.34 229.69,391.05 215.25,396.03 C197.14,402.27 160.92,410.11 134.00,413.62 ZM 483.50 413.62 C478.72,415.88 477.61,415.97 458.00,415.84 C446.73,415.76 436.15,415.53 434.50,415.33 C432.85,415.12 426.77,414.26 421.00,413.40 C379.60,407.30 337.73,387.42 305.60,358.62 C300.94,354.44 300.80,354.18 302.77,353.12 C303.91,352.51 305.44,351.44 306.17,350.74 C306.90,350.03 309.75,347.67 312.50,345.48 C336.59,326.31 353.70,306.16 385.93,259.06 C402.91,234.23 410.04,223.99 412.80,220.45 C416.21,216.07 409.16,229.21 401.99,240.60 C398.69,245.83 396.00,250.44 396.00,250.85 C396.00,251.26 396.54,252.14 397.19,252.79 C397.84,253.44 398.49,254.75 398.63,255.68 C398.77,256.62 399.14,258.40 399.45,259.65 C399.86,261.31 399.44,262.23 397.89,263.06 C396.40,263.86 395.96,263.87 396.44,263.10 C397.46,261.44 396.57,261.77 394.00,264.00 C392.73,265.10 391.16,266.00 390.52,266.00 C389.87,266.00 388.70,267.24 387.92,268.75 C387.14,270.26 385.97,271.84 385.33,272.26 C384.68,272.67 383.63,274.58 383.00,276.50 C382.03,279.45 381.57,279.84 380.02,279.01 C378.33,278.11 378.22,278.43 378.61,283.08 C378.87,286.21 378.48,289.35 377.59,291.32 C376.80,293.07 375.85,295.98 375.49,297.79 C375.12,299.61 373.74,302.26 372.41,303.69 C371.08,305.12 370.00,307.04 370.00,307.95 C370.00,308.86 369.60,310.03 369.10,310.55 C368.61,311.07 367.91,316.43 367.55,322.46 C367.19,328.49 366.45,333.96 365.91,334.61 C365.23,335.42 365.33,336.00 366.21,336.40 C367.23,336.87 367.24,337.12 366.25,337.58 C364.31,338.49 364.76,342.14 367.55,347.91 L 370.10 353.19 L 367.05 356.10 C365.37,357.71 364.00,359.19 364.00,359.40 C364.00,359.61 365.07,360.05 366.38,360.38 C367.68,360.71 369.48,362.09 370.37,363.44 C371.40,365.02 373.34,366.15 375.74,366.58 C377.81,366.95 380.40,368.05 381.50,369.02 C382.60,370.00 384.35,370.96 385.38,371.15 C386.42,371.34 388.42,373.64 389.83,376.26 C391.82,379.94 393.18,381.23 395.86,381.97 C397.76,382.50 399.69,382.69 400.15,382.40 C400.62,382.12 402.00,382.59 403.22,383.44 C405.63,385.13 409.00,385.53 409.00,384.13 C409.00,383.65 410.81,382.97 413.01,382.61 C416.74,382.02 421.10,383.56 423.00,386.14 C423.28,386.51 425.36,387.56 427.62,388.47 C429.88,389.37 432.74,391.27 433.97,392.68 C435.95,394.96 436.71,395.17 440.75,394.62 C443.25,394.28 445.89,393.51 446.61,392.90 C447.95,391.80 456.69,392.64 455.57,393.77 C454.89,394.45 462.65,399.00 464.48,399.00 C465.18,399.00 466.35,398.28 467.08,397.40 C468.08,396.20 469.39,395.97 472.42,396.45 C474.63,396.80 476.78,397.64 477.20,398.30 C477.78,399.20 477.97,399.18 477.98,398.19 C477.99,397.47 478.45,397.16 479.00,397.50 C479.55,397.84 480.00,397.67 480.00,397.12 C480.00,396.57 481.01,396.30 482.25,396.54 C485.75,397.19 489.11,399.26 488.65,400.47 C488.42,401.08 489.06,401.57 490.09,401.57 C491.90,401.57 491.90,401.52 490.08,399.54 C488.70,398.03 488.44,396.92 489.08,395.25 C489.59,393.90 489.56,393.00 488.99,393.00 C488.44,393.00 488.52,391.96 489.17,390.53 C489.79,389.17 490.64,388.28 491.06,388.54 C491.48,388.80 492.04,388.45 492.29,387.76 C493.31,384.98 495.34,389.08 495.67,394.58 C495.98,399.83 495.86,400.20 494.00,399.71 C492.90,399.42 492.24,399.59 492.54,400.07 C492.85,400.56 492.63,401.83 492.05,402.90 C491.29,404.32 491.35,404.96 492.26,405.28 C494.30,406.01 489.05,411.00 483.50,413.62 Z" fill="rgb(178,108,14)"/>
<path d="M 265.89 374.34 C266.06,373.96 266.29,373.08 266.47,372.14 C266.88,370.05 265.72,369.46 262.15,369.95 C261.41,370.05 261.06,369.70 261.39,369.18 C262.62,367.20 257.99,367.18 256.60,369.17 C254.51,372.14 247.67,372.67 245.04,370.04 C243.15,368.15 241.85,368.02 226.75,368.12 C210.57,368.22 203.47,367.57 202.43,365.89 C201.59,364.53 197.01,364.83 196.92,366.25 C196.86,367.24 196.74,367.24 196.34,366.24 C196.06,365.55 195.44,365.23 194.96,365.53 C194.47,365.82 193.16,365.49 192.04,364.79 C190.41,363.78 189.60,363.77 188.01,364.76 C184.59,366.90 181.36,366.21 177.98,362.62 C176.05,360.58 173.83,359.25 172.36,359.25 C171.01,359.25 170.12,359.46 170.38,359.71 C171.05,360.38 166.83,365.00 165.57,364.98 C164.98,364.98 165.18,364.53 166.00,364.00 C166.82,363.47 167.05,363.04 166.50,363.05 C164.61,363.08 162.00,365.72 161.98,367.61 C161.98,368.79 161.69,369.07 161.23,368.36 C160.70,367.54 160.14,367.60 159.21,368.61 C158.50,369.37 158.20,370.00 158.53,370.00 C158.87,370.00 158.47,370.67 157.64,371.50 C156.82,372.33 155.44,373.00 154.57,373.00 C153.71,373.00 153.00,373.45 153.00,374.00 C153.00,374.55 152.66,374.90 152.25,374.78 C151.08,374.44 143.00,380.14 143.00,381.30 C143.00,381.87 142.70,382.04 142.34,381.67 C141.97,381.31 140.29,382.04 138.59,383.30 C131.11,388.83 105.50,402.18 97.90,404.50 C96.58,404.91 93.62,406.08 91.32,407.11 C87.14,408.99 74.01,412.28 66.50,413.34 C62.69,413.87 62.74,413.82 67.50,412.31 C97.36,402.82 111.86,396.55 129.36,385.56 C134.23,382.50 138.62,380.00 139.11,380.00 C139.60,380.00 140.00,379.65 140.00,379.21 C140.00,378.11 149.67,371.01 151.22,370.97 C152.82,370.93 158.00,366.44 158.00,365.10 C158.00,364.56 158.94,363.46 160.08,362.65 C164.73,359.40 182.56,342.23 190.76,333.11 C195.20,328.17 199.06,323.79 202.67,319.51 C193.14,330.97 183.63,341.11 172.11,352.40 C166.55,357.85 162.00,362.75 162.00,363.30 C162.00,363.84 163.08,363.13 164.40,361.71 C165.71,360.29 167.03,359.36 167.32,359.66 C167.92,360.25 199.07,329.21 203.00,324.11 C204.38,322.33 209.21,316.22 213.75,310.55 C218.29,304.87 222.00,299.76 222.00,299.20 C222.00,298.63 222.35,298.02 222.78,297.83 C223.89,297.36 234.17,283.65 244.77,268.50 C249.77,261.35 254.71,254.59 255.74,253.48 C256.77,252.37 258.47,250.01 259.52,248.23 C260.57,246.45 261.81,245.00 262.27,245.00 C262.74,245.00 262.84,244.55 262.50,244.00 C262.16,243.45 262.36,243.00 262.94,243.00 C263.52,243.00 264.00,242.54 264.00,241.97 C264.00,240.89 272.83,229.17 276.14,225.86 C277.20,224.80 277.76,223.42 277.38,222.81 C276.98,222.16 277.14,221.97 277.76,222.35 C278.35,222.72 278.98,222.66 279.16,222.22 C279.35,221.78 280.97,220.40 282.76,219.14 C284.56,217.88 285.72,216.36 285.36,215.77 C284.96,215.13 285.16,214.98 285.85,215.40 C286.48,215.80 287.00,215.59 287.00,214.95 C287.00,214.31 287.70,214.05 288.55,214.38 C289.42,214.71 289.84,214.55 289.51,214.02 C288.80,212.86 293.44,211.54 294.94,212.46 C295.52,212.82 296.00,213.77 296.00,214.56 C296.00,215.35 296.87,216.00 297.93,216.00 C298.99,216.00 300.83,217.35 302.00,219.00 C303.53,221.15 304.96,222.00 307.03,222.00 C308.91,222.00 310.31,222.71 311.00,224.00 C312.52,226.83 313.94,226.48 315.16,222.97 C315.74,221.30 317.50,219.28 319.06,218.47 C322.74,216.57 328.89,216.59 331.01,218.51 C332.34,219.71 333.29,219.79 335.80,218.92 C338.31,218.04 339.36,218.14 341.18,219.42 C342.43,220.29 344.92,221.00 346.72,221.00 C348.53,221.00 350.00,221.48 350.00,222.06 C350.00,222.64 350.45,222.84 351.00,222.50 C351.55,222.16 352.00,222.31 352.00,222.83 C352.00,224.41 359.74,227.00 364.45,227.00 C368.25,227.00 369.17,226.57 371.07,223.90 C373.24,220.86 373.43,220.80 380.15,221.18 C385.84,221.50 387.27,221.94 388.56,223.78 C390.50,226.55 393.95,226.63 396.81,223.96 C398.02,222.84 399.00,222.42 399.00,223.02 C399.00,223.62 399.45,223.84 400.00,223.50 C402.18,222.15 400.82,225.25 397.75,228.62 C393.95,232.78 392.10,235.68 393.97,234.52 C394.92,233.93 394.95,234.23 394.10,235.81 C392.66,238.50 392.71,239.29 394.25,238.37 C395.25,237.77 395.25,237.93 394.26,239.15 C393.58,239.99 393.35,241.05 393.76,241.50 C394.17,241.95 393.94,242.00 393.25,241.60 C392.56,241.21 392.00,241.34 392.00,241.91 C392.00,243.04 381.43,259.71 379.47,261.67 C378.79,262.35 377.89,262.59 377.46,262.20 C377.03,261.82 376.98,262.02 377.34,262.65 C377.92,263.67 372.36,272.61 362.81,286.00 C350.45,303.33 328.25,328.10 314.92,339.41 C308.96,344.47 287.65,360.54 283.91,362.80 C281.93,363.99 278.56,366.37 276.41,368.09 C275.09,369.14 270.77,371.66 265.89,374.34 ZM 495.55 393.25 C495.01,388.45 493.22,385.21 492.29,387.76 C492.04,388.45 491.48,388.80 491.06,388.54 C490.64,388.28 489.79,389.17 489.17,390.53 C488.52,391.96 488.44,393.00 488.99,393.00 C489.56,393.00 489.59,393.90 489.08,395.25 C488.44,396.92 488.70,398.03 490.08,399.54 C491.90,401.52 491.90,401.57 490.09,401.57 C489.06,401.57 488.42,401.08 488.65,400.47 C489.11,399.26 485.75,397.19 482.25,396.54 C481.01,396.30 480.00,396.57 480.00,397.12 C480.00,397.67 479.55,397.84 479.00,397.50 C478.45,397.16 477.99,397.47 477.98,398.19 C477.97,399.18 477.78,399.20 477.20,398.30 C476.78,397.64 474.63,396.80 472.42,396.45 C469.39,395.97 468.08,396.20 467.08,397.40 C466.35,398.28 465.18,399.00 464.48,399.00 C462.65,399.00 454.89,394.45 455.57,393.77 C456.69,392.64 447.95,391.80 446.61,392.90 C445.89,393.51 443.25,394.28 440.75,394.62 C436.71,395.17 435.95,394.96 433.97,392.68 C432.74,391.27 429.88,389.37 427.62,388.47 C425.36,387.56 423.28,386.51 423.00,386.14 C421.10,383.56 416.74,382.02 413.01,382.61 C410.81,382.97 409.00,383.65 409.00,384.13 C409.00,385.53 405.63,385.13 403.22,383.44 C402.00,382.59 400.62,382.12 400.15,382.40 C399.69,382.69 397.76,382.50 395.86,381.97 C393.18,381.23 391.82,379.94 389.83,376.26 C388.42,373.64 386.42,371.34 385.38,371.15 C384.35,370.96 382.60,370.00 381.50,369.02 C380.40,368.05 377.81,366.95 375.74,366.58 C373.34,366.15 371.40,365.02 370.37,363.44 C369.48,362.09 367.68,360.71 366.38,360.38 C365.07,360.05 364.00,359.61 364.00,359.40 C364.00,359.19 365.37,357.71 367.05,356.10 L 370.10 353.19 L 367.55 347.91 C364.76,342.14 364.31,338.49 366.25,337.58 C367.24,337.12 367.23,336.87 366.21,336.40 C365.33,336.00 365.23,335.42 365.91,334.61 C366.45,333.96 367.19,328.49 367.55,322.46 C367.91,316.43 368.61,311.07 369.10,310.55 C369.60,310.03 370.00,308.86 370.00,307.95 C370.00,307.04 371.08,305.12 372.41,303.69 C373.74,302.26 375.12,299.61 375.49,297.79 C375.85,295.98 376.80,293.07 377.59,291.32 C378.48,289.35 378.87,286.21 378.61,283.08 C378.22,278.43 378.33,278.11 380.02,279.01 C381.57,279.84 382.03,279.45 383.00,276.50 C383.63,274.58 384.68,272.67 385.33,272.26 C385.97,271.84 387.14,270.26 387.92,268.75 C388.70,267.24 389.87,266.00 390.52,266.00 C391.16,266.00 392.73,265.10 394.00,264.00 C396.57,261.77 397.46,261.44 396.44,263.10 C395.96,263.87 396.40,263.86 397.89,263.06 C399.44,262.23 399.86,261.31 399.45,259.65 C399.14,258.40 398.77,256.62 398.63,255.68 C398.49,254.75 397.84,253.44 397.19,252.79 C396.54,252.14 396.00,251.26 396.00,250.85 C396.00,250.83 396.01,250.80 396.02,250.75 C396.31,251.53 399.38,255.65 404.77,262.50 C409.14,268.05 457.64,333.96 465.48,345.00 C467.63,348.02 474.64,357.70 481.06,366.50 C487.48,375.30 493.27,383.53 493.92,384.79 C494.56,386.01 495.28,389.77 495.55,393.25 ZM 238.20 271.73 C239.75,269.51 242.15,266.09 244.32,263.00 C250.89,253.66 252.33,250.52 250.69,249.16 C249.13,247.86 247.14,249.37 243.69,254.48 C242.21,256.67 241.00,258.12 241.00,257.69 C241.00,257.27 239.18,258.60 236.96,260.66 C226.74,270.12 223.57,270.81 219.00,264.57 C217.62,262.69 212.45,256.09 207.50,249.89 C202.55,243.69 195.81,235.22 192.53,231.06 C186.16,223.00 185.01,221.88 183.88,222.58 C183.48,222.82 177.38,231.20 170.33,241.20 C163.27,251.20 152.77,266.05 147.00,274.20 C144.92,277.13 142.73,280.24 140.66,283.17 C142.62,280.38 144.68,277.47 146.61,274.75 C152.17,266.91 162.37,252.40 169.28,242.50 C181.97,224.30 187.49,217.12 186.43,220.17 C185.98,221.47 186.39,221.78 188.27,221.57 C190.39,221.34 190.66,221.66 190.38,224.11 C190.20,225.65 190.48,227.18 191.01,227.51 C191.58,227.86 191.70,227.36 191.30,226.30 C190.72,224.74 190.84,224.68 192.26,225.83 C193.67,226.97 193.87,226.88 193.74,225.14 C193.65,224.04 193.23,223.36 192.79,223.63 C192.36,223.90 192.00,223.67 192.00,223.12 C192.00,222.57 192.47,221.83 193.04,221.47 C193.61,221.12 193.81,219.86 193.48,218.67 C193.06,217.17 193.15,216.91 193.80,217.83 C194.55,218.92 194.84,218.87 195.33,217.58 C195.68,216.68 195.42,215.99 194.72,215.98 C193.88,215.97 193.93,215.70 194.88,215.09 C196.46,214.09 196.99,210.26 195.87,207.92 C195.40,206.94 195.57,206.28 196.30,206.21 C203.22,205.48 208.00,205.49 208.00,206.23 C208.00,206.73 207.51,208.04 206.92,209.15 C206.32,210.26 206.08,211.41 206.37,211.70 C207.19,212.52 210.00,209.34 210.00,207.59 C210.00,205.52 214.27,204.54 216.97,205.99 C218.70,206.91 219.63,206.82 221.57,205.55 C222.91,204.67 224.00,203.51 224.00,202.98 C224.00,202.44 225.46,201.99 227.25,201.97 C229.04,201.95 231.37,201.28 232.44,200.47 C233.51,199.66 235.45,199.00 236.76,199.00 C238.06,199.00 240.10,198.48 241.29,197.84 C242.48,197.21 245.19,196.76 247.32,196.84 C250.43,196.96 251.29,196.60 251.72,194.98 C252.02,193.82 254.97,191.44 258.67,189.37 C262.21,187.39 265.76,184.77 266.56,183.55 C268.84,180.07 282.42,174.00 287.92,174.00 C289.17,174.00 291.56,173.03 293.22,171.84 C295.69,170.09 296.61,169.90 298.12,170.84 C299.14,171.48 300.70,172.00 301.59,172.00 C302.84,172.00 303.07,172.60 302.57,174.58 C302.08,176.54 302.23,176.98 303.21,176.38 C303.92,175.94 303.70,176.69 302.71,178.04 C301.73,179.39 300.15,181.76 299.21,183.29 C298.27,184.82 292.14,193.82 285.58,203.29 C268.50,227.96 260.68,239.33 254.13,249.00 C250.96,253.68 246.27,260.42 243.70,264.00 C241.80,266.64 239.65,269.66 238.20,271.73 ZM 128.90 300.01 C125.78,304.51 121.38,310.81 117.41,316.50 C111.65,324.75 104.28,335.33 101.03,340.00 C92.73,351.98 90.55,354.46 89.10,353.56 C88.38,353.12 88.00,351.28 88.18,349.15 C88.46,346.01 88.18,345.46 86.25,345.18 C85.01,345.00 84.00,344.44 84.00,343.93 C84.00,343.42 82.70,343.00 81.11,343.00 C79.53,343.00 76.94,342.33 75.36,341.51 C71.71,339.60 68.55,339.60 66.64,341.50 C65.67,342.47 63.20,343.00 59.64,343.00 C56.61,343.00 52.98,343.44 51.57,343.98 C50.15,344.51 49.00,344.59 49.00,344.14 C49.00,343.70 48.34,343.33 47.54,343.33 C46.74,343.33 46.32,343.71 46.60,344.16 C47.52,345.65 42.24,347.44 40.70,346.16 C39.65,345.29 39.33,345.38 39.33,346.52 C39.33,347.33 39.82,348.01 40.42,348.02 C41.01,348.02 40.85,348.44 40.05,348.95 C38.10,350.18 36.94,349.33 37.73,347.25 C38.83,344.40 35.69,347.90 27.35,358.88 C31.29,353.55 34.00,349.76 34.00,349.57 C34.00,348.81 49.58,327.10 69.50,300.09 C74.45,293.38 78.95,287.13 79.50,286.20 C82.00,281.96 89.39,272.71 93.56,268.60 C97.17,265.04 99.04,263.98 102.40,263.58 C104.74,263.31 107.95,262.59 109.54,261.99 C111.12,261.38 113.50,261.16 114.81,261.49 C116.13,261.82 118.62,261.63 120.35,261.06 C122.08,260.50 129.18,259.89 136.12,259.71 L 148.74 259.39 L 148.50 262.44 C148.36,264.15 147.69,265.50 146.96,265.50 C146.25,265.50 145.46,266.13 145.20,266.89 C144.92,267.74 145.18,268.01 145.89,267.57 C146.52,267.18 146.01,268.45 144.77,270.39 C143.52,272.33 141.19,276.07 139.59,278.71 C137.98,281.34 134.57,286.65 132.00,290.50 C129.43,294.35 126.12,299.98 124.65,303.00 L 121.97 308.50 L 124.73 305.37 C125.66,304.32 127.25,302.28 128.90,300.01 ZM 473.00 212.55 C473.00,214.53 472.54,214.94 470.49,214.77 C469.11,214.66 468.11,214.32 468.27,214.03 C468.42,213.74 469.44,211.59 470.51,209.25 C471.59,206.91 473.04,205.00 473.74,205.00 C475.23,205.00 475.44,208.61 474.00,209.50 C473.45,209.84 473.00,211.21 473.00,212.55 ZM 483.50 413.62 C489.05,411.00 494.30,406.01 492.26,405.28 C491.35,404.96 491.29,404.32 492.05,402.90 C492.63,401.83 492.85,400.56 492.54,400.07 C492.24,399.59 492.90,399.42 494.00,399.71 C494.63,399.87 495.06,399.94 495.34,399.76 C494.24,406.16 490.29,410.61 483.00,413.92 C482.00,414.37 481.11,414.72 480.06,415.00 C481.23,414.67 482.23,414.22 483.50,413.62 ZM 248.30 383.11 C248.95,382.92 254.30,380.35 258.92,378.07 C253.80,380.74 249.32,382.92 248.30,383.11 Z" fill="rgb(212,150,34)"/>
<path d="M 265.89 374.34 C270.77,371.66 275.09,369.14 276.41,368.09 C278.56,366.37 281.93,363.99 283.91,362.80 C287.65,360.54 308.96,344.47 314.92,339.41 C328.25,328.10 350.45,303.33 362.81,286.00 C372.36,272.61 377.92,263.67 377.34,262.65 C376.98,262.02 377.03,261.82 377.46,262.20 C377.89,262.59 378.79,262.35 379.47,261.67 C381.43,259.71 392.00,243.04 392.00,241.91 C392.00,241.34 392.56,241.21 393.25,241.60 C393.94,242.00 394.17,241.95 393.76,241.50 C393.35,241.05 393.58,239.99 394.26,239.15 C395.25,237.93 395.25,237.77 394.25,238.37 C392.71,239.29 392.66,238.50 394.10,235.81 C394.95,234.23 394.92,233.93 393.97,234.52 C392.10,235.68 393.95,232.78 397.75,228.62 C400.82,225.25 402.18,222.15 400.00,223.50 C399.45,223.84 399.00,223.62 399.00,223.02 C399.00,222.42 398.02,222.84 396.81,223.96 C393.95,226.63 390.50,226.55 388.56,223.78 C387.27,221.94 385.84,221.50 380.15,221.18 C373.43,220.80 373.24,220.86 371.07,223.90 C369.17,226.57 368.25,227.00 364.45,227.00 C359.74,227.00 352.00,224.41 352.00,222.83 C352.00,222.31 351.55,222.16 351.00,222.50 C350.45,222.84 350.00,222.64 350.00,222.06 C350.00,221.48 348.53,221.00 346.72,221.00 C344.92,221.00 342.43,220.29 341.18,219.42 C339.36,218.14 338.31,218.04 335.80,218.92 C333.29,219.79 332.34,219.71 331.01,218.51 C328.89,216.59 322.74,216.57 319.06,218.47 C317.50,219.28 315.74,221.30 315.16,222.97 C313.94,226.48 312.52,226.83 311.00,224.00 C310.31,222.71 308.91,222.00 307.03,222.00 C304.96,222.00 303.53,221.15 302.00,219.00 C300.83,217.35 298.99,216.00 297.93,216.00 C296.87,216.00 296.00,215.35 296.00,214.56 C296.00,213.77 295.52,212.82 294.94,212.46 C293.44,211.54 288.80,212.86 289.51,214.02 C289.84,214.55 289.42,214.71 288.55,214.38 C287.70,214.05 287.00,214.31 287.00,214.95 C287.00,215.59 286.48,215.80 285.85,215.40 C285.16,214.98 284.96,215.13 285.36,215.77 C285.72,216.36 284.56,217.88 282.76,219.14 C280.97,220.40 279.35,221.78 279.16,222.22 C278.98,222.66 278.35,222.72 277.76,222.35 C277.14,221.97 276.98,222.16 277.38,222.81 C277.76,223.42 277.20,224.80 276.14,225.86 C272.83,229.17 264.00,240.89 264.00,241.97 C264.00,242.54 263.52,243.00 262.94,243.00 C262.36,243.00 262.16,243.45 262.50,244.00 C262.84,244.55 262.74,245.00 262.27,245.00 C261.81,245.00 260.57,246.45 259.52,248.23 C258.47,250.01 256.77,252.37 255.74,253.48 C254.71,254.59 249.77,261.35 244.77,268.50 C234.17,283.65 223.89,297.36 222.78,297.83 C222.35,298.02 222.00,298.63 222.00,299.20 C222.00,299.76 218.29,304.87 213.75,310.55 C209.21,316.22 204.38,322.33 203.00,324.11 C199.07,329.21 167.92,360.25 167.32,359.66 C167.03,359.36 165.71,360.29 164.40,361.71 C163.08,363.13 162.00,363.84 162.00,363.30 C162.00,362.75 166.55,357.85 172.11,352.40 C183.63,341.11 193.14,330.97 202.67,319.51 C213.13,307.13 221.64,295.55 236.96,273.50 C237.25,273.08 237.67,272.48 238.20,271.73 C239.65,269.66 241.80,266.64 243.70,264.00 C246.27,260.42 250.96,253.68 254.13,249.00 C260.68,239.33 268.50,227.96 285.58,203.29 C292.14,193.82 298.27,184.82 299.21,183.29 C300.15,181.76 301.73,179.39 302.71,178.04 C303.70,176.69 303.92,175.94 303.21,176.38 C302.23,176.98 302.08,176.54 302.57,174.58 C303.07,172.60 302.84,172.00 301.59,172.00 C300.70,172.00 299.14,171.48 298.12,170.84 C296.61,169.90 295.69,170.09 293.22,171.84 C291.56,173.03 289.17,174.00 287.92,174.00 C282.42,174.00 268.84,180.07 266.56,183.55 C265.76,184.77 262.21,187.39 258.67,189.37 C254.97,191.44 252.02,193.82 251.72,194.98 C251.29,196.60 250.43,196.96 247.32,196.84 C245.19,196.76 242.48,197.21 241.29,197.84 C240.10,198.48 238.06,199.00 236.76,199.00 C235.45,199.00 233.51,199.66 232.44,200.47 C231.37,201.28 229.04,201.95 227.25,201.97 C225.46,201.99 224.00,202.44 224.00,202.98 C224.00,203.51 222.91,204.67 221.57,205.55 C219.63,206.82 218.70,206.91 216.97,205.99 C214.27,204.54 210.00,205.52 210.00,207.59 C210.00,209.34 207.19,212.52 206.37,211.70 C206.08,211.41 206.32,210.26 206.92,209.15 C207.51,208.04 208.00,206.73 208.00,206.23 C208.00,205.49 203.22,205.48 196.30,206.21 C195.57,206.28 195.40,206.94 195.87,207.92 C196.99,210.26 196.46,214.09 194.88,215.09 C193.93,215.70 193.88,215.97 194.72,215.98 C195.42,215.99 195.68,216.68 195.33,217.58 C194.84,218.87 194.55,218.92 193.80,217.83 C193.15,216.91 193.06,217.17 193.48,218.67 C193.81,219.86 193.61,221.12 193.04,221.47 C192.47,221.83 192.00,222.57 192.00,223.12 C192.00,223.67 192.36,223.90 192.79,223.63 C193.23,223.36 193.65,224.04 193.74,225.14 C193.87,226.88 193.67,226.97 192.26,225.83 C190.84,224.68 190.72,224.74 191.30,226.30 C191.70,227.36 191.58,227.86 191.01,227.51 C190.48,227.18 190.20,225.65 190.38,224.11 C190.66,221.66 190.39,221.34 188.27,221.57 C186.39,221.78 185.98,221.47 186.43,220.17 C187.49,217.12 181.97,224.30 169.28,242.50 C162.37,252.40 152.17,266.91 146.61,274.75 C144.68,277.47 142.62,280.38 140.66,283.17 C136.99,288.39 133.71,293.06 132.20,295.26 C131.46,296.33 130.31,297.99 128.90,300.01 C127.25,302.28 125.66,304.32 124.73,305.37 L 121.97 308.50 L 124.65 303.00 C126.12,299.98 129.43,294.35 132.00,290.50 C134.57,286.65 137.98,281.34 139.59,278.71 C141.19,276.07 143.52,272.33 144.77,270.39 C146.01,268.45 146.52,267.18 145.89,267.57 C145.18,268.01 144.92,267.74 145.20,266.89 C145.46,266.13 146.25,265.50 146.96,265.50 C147.69,265.50 148.36,264.15 148.50,262.44 L 148.74 259.39 L 136.12 259.71 C129.18,259.89 122.08,260.50 120.35,261.06 C118.62,261.63 116.13,261.82 114.81,261.49 C113.50,261.16 111.12,261.38 109.54,261.99 C107.95,262.59 104.74,263.31 102.40,263.58 C99.04,263.98 97.17,265.04 93.56,268.60 C91.18,270.94 87.76,274.96 84.79,278.76 C85.52,277.68 86.00,276.83 86.00,276.58 C86.00,276.18 87.95,273.29 90.33,270.17 C94.15,265.15 103.50,251.91 126.23,219.33 C135.92,205.42 140.77,200.01 145.41,197.90 C152.69,194.60 160.87,195.79 167.30,201.09 C172.40,205.30 182.16,217.65 181.79,219.44 C181.63,220.22 181.95,220.98 182.50,221.11 C183.47,221.35 187.17,216.58 196.55,203.00 C199.03,199.43 203.77,192.68 207.09,188.00 C210.42,183.32 213.89,178.38 214.81,177.00 C215.73,175.62 220.96,168.20 226.42,160.50 C231.89,152.80 239.22,142.26 242.73,137.09 C252.10,123.23 254.35,120.67 259.68,117.82 C270.52,112.02 279.74,113.64 289.00,122.96 C296.50,130.52 317.53,156.98 317.36,158.65 C317.17,160.54 318.75,160.33 320.44,158.25 C339.19,135.11 340.46,127.55 327.23,117.82 C289.04,89.73 287.73,88.48 289.99,82.52 C291.29,79.11 293.53,78.11 311.50,72.91 C320.30,70.36 334.70,66.16 343.50,63.58 C352.30,60.99 361.52,58.29 364.00,57.58 C393.63,49.05 405.14,45.66 408.50,44.51 C422.50,39.69 430.55,37.80 434.70,38.37 C444.81,39.76 452.57,45.12 457.04,53.81 C459.48,58.54 459.63,59.58 470.00,147.50 C471.63,161.25 473.61,177.68 474.42,184.00 C475.22,190.32 476.19,200.00 476.56,205.50 C477.19,214.85 477.10,215.62 475.14,217.38 C471.16,220.97 466.82,219.23 452.04,208.12 C444.40,202.38 437.24,197.76 435.46,197.43 C432.08,196.79 425.87,198.91 422.70,201.77 C421.68,202.70 420.20,204.99 419.42,206.85 C417.69,210.98 417.67,211.32 419.20,210.37 C419.86,209.97 419.12,211.85 417.55,214.57 C416.23,216.85 412.57,222.97 408.68,229.44 C412.68,222.44 415.08,217.52 412.80,220.45 C410.04,223.99 402.91,234.23 385.93,259.06 C353.70,306.16 336.59,326.31 312.50,345.48 C309.75,347.67 306.90,350.03 306.17,350.74 C305.44,351.44 303.91,352.51 302.77,353.12 C301.11,354.01 300.95,354.34 303.73,356.93 C303.23,356.60 302.74,356.37 302.23,356.23 C299.43,355.47 295.88,357.51 285.77,363.33 C285.38,363.56 284.98,363.79 284.57,364.02 C278.65,367.43 271.92,371.14 265.87,374.37 C265.88,374.36 265.88,374.35 265.89,374.34 ZM 473.00 212.55 C473.00,211.21 473.45,209.84 474.00,209.50 C475.44,208.61 475.23,205.00 473.74,205.00 C473.04,205.00 471.59,206.91 470.51,209.25 C469.44,211.59 468.42,213.74 468.27,214.03 C468.11,214.32 469.11,214.66 470.49,214.77 C472.54,214.94 473.00,214.53 473.00,212.55 ZM 174.02 232.31 C174.03,234.09 174.21,234.22 175.00,233.00 C176.27,231.03 176.27,228.71 175.00,229.50 C174.45,229.84 174.01,231.10 174.02,232.31 ZM 389.78 406.24 C400.11,409.45 410.57,411.87 421.00,413.40 C422.84,413.68 424.71,413.95 426.46,414.20 C413.76,412.87 403.33,410.52 389.78,406.24 ZM 334.26 380.35 C350.17,390.53 367.37,398.78 385.04,404.71 C384.21,404.43 383.36,404.15 382.50,403.86 C368.36,399.11 350.05,390.41 337.59,382.52 C336.54,381.86 335.43,381.13 334.26,380.35 ZM 461.50 415.86 C473.17,415.93 477.11,415.83 480.06,415.00 C481.11,414.72 482.00,414.37 483.00,413.92 C485.99,412.56 488.42,411.01 490.32,409.21 C488.10,411.38 485.19,413.14 481.57,414.53 C478.18,415.82 475.26,416.11 461.50,415.86 ZM 396.36 250.02 C396.24,250.80 396.63,251.74 398.02,253.73 C396.83,252.11 396.15,251.10 396.02,250.75 C396.07,250.61 396.18,250.36 396.36,250.02 ZM 79.87 285.59 C79.74,285.80 79.61,286.00 79.50,286.20 C78.95,287.13 74.45,293.38 69.50,300.09 C74.45,293.38 78.95,287.12 79.50,286.18 C79.59,286.02 79.72,285.82 79.87,285.59 ZM 400.07 243.68 C399.80,244.12 399.55,244.54 399.30,244.95 C399.55,244.53 399.81,244.11 400.07,243.68 Z" fill="rgb(239,192,68)"/>
<path d="M 0.00 250.00 L 0.00 0.00 L 250.00 0.00 L 500.00 0.00 L 500.00 250.00 L 500.00 500.00 L 250.00 500.00 L 0.00 500.00 L 0.00 250.00 ZM 134.00 413.62 C160.92,410.11 197.14,402.27 215.25,396.03 C229.69,391.05 239.41,387.34 243.51,385.25 C245.71,384.13 247.95,383.11 248.50,382.99 C250.85,382.46 270.12,372.33 284.57,364.02 C301.77,354.13 301.20,354.23 307.46,360.19 C312.41,364.89 328.02,376.46 337.59,382.52 C350.05,390.41 368.36,399.11 382.50,403.86 C408.78,412.70 422.27,414.95 453.28,415.69 C474.25,416.18 477.59,416.05 481.57,414.53 C491.71,410.65 496.31,403.76 495.58,393.54 C495.32,389.98 494.58,386.04 493.92,384.79 C493.27,383.53 487.48,375.30 481.06,366.50 C474.64,357.70 467.63,348.02 465.48,345.00 C457.64,333.96 409.14,268.05 404.77,262.50 C395.64,250.90 395.61,250.85 397.02,248.64 C399.33,245.01 414.53,219.79 417.55,214.57 C419.12,211.85 419.86,209.97 419.20,210.37 C417.67,211.32 417.69,210.98 419.42,206.85 C420.20,204.99 421.68,202.70 422.70,201.77 C425.87,198.91 432.08,196.79 435.46,197.43 C437.24,197.76 444.40,202.38 452.04,208.12 C466.82,219.23 471.16,220.97 475.14,217.38 C477.10,215.62 477.19,214.85 476.56,205.50 C476.19,200.00 475.22,190.32 474.42,184.00 C473.61,177.68 471.63,161.25 470.00,147.50 C459.63,59.58 459.48,58.54 457.04,53.81 C452.57,45.12 444.81,39.76 434.70,38.37 C430.55,37.80 422.50,39.69 408.50,44.51 C405.14,45.66 393.63,49.05 364.00,57.58 C361.52,58.29 352.30,60.99 343.50,63.58 C334.70,66.16 320.30,70.36 311.50,72.91 C293.53,78.11 291.29,79.11 289.99,82.52 C287.73,88.48 289.04,89.73 327.23,117.82 C340.46,127.55 339.19,135.11 320.44,158.25 C318.75,160.33 317.17,160.54 317.36,158.65 C317.53,156.98 296.50,130.52 289.00,122.96 C279.74,113.64 270.52,112.02 259.68,117.82 C254.35,120.67 252.10,123.23 242.73,137.09 C239.22,142.26 231.89,152.80 226.42,160.50 C220.96,168.20 215.73,175.62 214.81,177.00 C213.89,178.38 210.42,183.32 207.09,188.00 C203.77,192.68 199.03,199.43 196.55,203.00 C187.17,216.58 183.47,221.35 182.50,221.11 C181.95,220.98 181.63,220.22 181.79,219.44 C182.16,217.65 172.40,205.30 167.30,201.09 C160.87,195.79 152.69,194.60 145.41,197.90 C140.77,200.01 135.92,205.42 126.23,219.33 C103.50,251.91 94.15,265.15 90.33,270.17 C87.95,273.29 86.00,276.18 86.00,276.58 C86.00,276.98 84.76,278.92 83.25,280.89 C81.74,282.86 80.05,285.24 79.50,286.18 C78.95,287.12 74.45,293.38 69.50,300.09 C49.58,327.10 34.00,348.81 34.00,349.57 C34.00,349.84 28.60,357.27 22.00,366.08 C8.44,384.18 7.20,386.26 6.38,392.24 C4.93,402.80 10.90,411.53 21.99,415.11 C23.37,415.56 46.33,415.77 73.00,415.58 C110.42,415.32 124.36,414.87 134.00,413.62 ZM 174.02 232.31 C174.01,231.10 174.45,229.84 175.00,229.50 C176.27,228.71 176.27,231.03 175.00,233.00 C174.21,234.22 174.03,234.09 174.02,232.31 Z" fill="rgb(254,254,253)"/>
</g>
</svg>