<svg xmlns="http://www.w3.org/2000/svg" width="500" height="500" viewBox="0 0 500 500"><path d="M 265.89 374.34 C266.06,373.96 266.29,373.08 266.47,372.14 C266.88,370.05 265.72,369.46 262.15,369.95 C261.41,370.05 261.06,369.70 261.39,369.18 C262.62,367.20 257.99,367.18 256.60,369.17 C254.51,372.14 247.67,372.67 245.04,370.04 C243.15,368.15 241.85,368.02 226.75,368.12 C210.57,368.22 203.47,367.57 202.43,365.89 C201.59,364.53 197.01,364.83 196.92,366.25 C196.86,367.24 196.74,367.24 196.34,366.24 C196.06,365.55 195.44,365.23 194.96,365.53 C194.47,365.82 193.16,365.49 192.04,364.79 C190.41,363.78 189.60,363.77 188.01,364.76 C184.59,366.90 181.36,366.21 177.98,362.62 C176.05,360.58 173.83,359.25 172.36,359.25 C171.01,359.25 170.12,359.46 170.38,359.71 C171.05,360.38 166.83,365.00 165.57,364.98 C164.98,364.98 165.18,364.53 166.00,364.00 C166.82,363.47 167.05,363.04 166.50,363.05 C164.61,363.08 162.00,365.72 161.98,367.61 C161.98,368.79 161.69,369.07 161.23,368.36 C160.70,367.54 160.14,367.60 159.21,368.61 C158.50,369.37 158.20,370.00 158.53,370.00 C158.87,370.00 158.47,370.67 157.64,371.50 C156.82,372.33 155.44,373.00 154.57,373.00 C153.71,373.00 153.00,373.45 153.00,374.00 C153.00,374.55 152.66,374.90 152.25,374.78 C151.08,374.44 143.00,380.14 143.00,381.30 C143.00,381.87 142.70,382.04 142.34,381.67 C141.97,381.31 140.29,382.04 138.59,383.30 C131.11,388.83 105.50,402.18 97.90,404.50 C96.58,404.91 93.62,406.08 91.32,407.11 C87.14,408.99 74.01,412.28 66.50,413.34 C62.69,413.87 62.74,413.82 67.50,412.31 C97.36,402.82 111.86,396.55 129.36,385.56 C134.23,382.50 138.62,380.00 139.11,380.00 C139.60,380.00 140.00,379.65 140.00,379.21 C140.00,378.11 149.67,371.01 151.22,370.97 C152.82,370.93 158.00,366.44 158.00,365.10 C158.00,364.56 158.94,363.46 160.08,362.65 C164.73,359.40 182.56,342.23 190.76,333.11 C195.20,328.17 199.06,323.79 202.67,319.51 C193.14,330.97 183.63,341.11 172.11,352.40 C166.55,357.85 162.00,362.75 162.00,363.30 C162.00,363.84 163.08,363.13 164.40,361.71 C165.71,360.29 167.03,359.36 167.32,359.66 C167.92,360.25 199.07,329.21 203.00,324.11 C204.38,322.33 209.21,316.22 213.75,310.55 C218.29,304.87 222.00,299.76 222.00,299.20 C222.00,298.63 222.35,298.02 222.78,297.83 C223.89,297.36 234.17,283.65 244.77,268.50 C249.77,261.35 254.71,254.59 255.74,253.48 C256.77,252.37 258.47,250.01 259.52,248.23 C260.57,246.45 261.81,245.00 262.27,245.00 C262.74,245.00 262.84,244.55 262.50,244.00 C262.16,243.45 262.36,243.00 262.94,243.00 C263.52,243.00 264.00,242.54 264.00,241.97 C264.00,240.89 272.83,229.17 276.14,225.86 C277.20,224.80 277.76,223.42 277.38,222.81 C276.98,222.16 277.14,221.97 277.76,222.35 C278.35,222.72 278.98,222.66 279.16,222.22 C279.35,221.78 280.97,220.40 282.76,219.14 C284.56,217.88 285.72,216.36 285.36,215.77 C284.96,215.13 285.16,214.98 285.85,215.40 C286.48,215.80 287.00,215.59 287.00,214.95 C287.00,214.31 287.70,214.05 288.55,214.38 C289.42,214.71 289.84,214.55 289.51,214.02 C288.80,212.86 293.44,211.54 294.94,212.46 C295.52,212.82 296.00,213.77 296.00,214.56 C296.00,215.35 296.87,216.00 297.93,216.00 C298.99,216.00 300.83,217.35 302.00,219.00 C303.53,221.15 304.96,222.00 307.03,222.00 C308.91,222.00 310.31,222.71 311.00,224.00 C312.52,226.83 313.94,226.48 315.16,222.97 C315.74,221.30 317.50,219.28 319.06,218.47 C322.74,216.57 328.89,216.59 331.01,218.51 C332.34,219.71 333.29,219.79 335.80,218.92 C338.31,218.04 339.36,218.14 341.18,219.42 C342.43,220.29 344.92,221.00 346.72,221.00 C348.53,221.00 350.00,221.48 350.00,222.06 C350.00,222.64 350.45,222.84 351.00,222.50 C351.55,222.16 352.00,222.31 352.00,222.83 C352.00,224.41 359.74,227.00 364.45,227.00 C368.25,227.00 369.17,226.57 371.07,223.90 C373.24,220.86 373.43,220.80 380.15,221.18 C385.84,221.50 387.27,221.94 388.56,223.78 C390.50,226.55 393.95,226.63 396.81,223.96 C398.02,222.84 399.00,222.42 399.00,223.02 C399.00,223.62 399.45,223.84 400.00,223.50 C402.18,222.15 400.82,225.25 397.75,228.62 C393.95,232.78 392.10,235.68 393.97,234.52 C394.92,233.93 394.95,234.23 394.10,235.81 C392.66,238.50 392.71,239.29 394.25,238.37 C395.25,237.77 395.25,237.93 394.26,239.15 C393.58,239.99 393.35,241.05 393.76,241.50 C394.17,241.95 393.94,242.00 393.25,241.60 C392.56,241.21 392.00,241.34 392.00,241.91 C392.00,243.04 381.43,259.71 379.47,261.67 C378.79,262.35 377.89,262.59 377.46,262.20 C377.03,261.82 376.98,262.02 377.34,262.65 C377.92,263.67 372.36,272.61 362.81,286.00 C350.45,303.33 328.25,328.10 314.92,339.41 C308.96,344.47 287.65,360.54 283.91,362.80 C281.93,363.99 278.56,366.37 276.41,368.09 C275.09,369.14 270.77,371.66 265.89,374.34 ZM 495.55 393.25 C495.01,388.45 493.22,385.21 492.29,387.76 C492.04,388.45 491.48,388.80 491.06,388.54 C490.64,388.28 489.79,389.17 489.17,390.53 C488.52,391.96 488.44,393.00 488.99,393.00 C489.56,393.00 489.59,393.90 489.08,395.25 C488.44,396.92 488.70,398.03 490.08,399.54 C491.90,401.52 491.90,401.57 490.09,401.57 C489.06,401.57 488.42,401.08 488.65,400.47 C489.11,399.26 485.75,397.19 482.25,396.54 C481.01,396.30 480.00,396.57 480.00,397.12 C480.00,397.67 479.55,397.84 479.00,397.50 C478.45,397.16 477.99,397.47 477.98,398.19 C477.97,399.18 477.78,399.20 477.20,398.30 C476.78,397.64 474.63,396.80 472.42,396.45 C469.39,395.97 468.08,396.20 467.08,397.40 C466.35,398.28 465.18,399.00 464.48,399.00 C462.65,399.00 454.89,394.45 455.57,393.77 C456.69,392.64 447.95,391.80 446.61,392.90 C445.89,393.51 443.25,394.28 440.75,394.62 C436.71,395.17 435.95,394.96 433.97,392.68 C432.74,391.27 429.88,389.37 427.62,388.47 C425.36,387.56 423.28,386.51 423.00,386.14 C421.10,383.56 416.74,382.02 413.01,382.61 C410.81,382.97 409.00,383.65 409.00,384.13 C409.00,385.53 405.63,385.13 403.22,383.44 C402.00,382.59 400.62,382.12 400.15,382.40 C399.69,382.69 397.76,382.50 395.86,381.97 C393.18,381.23 391.82,379.94 389.83,376.26 C388.42,373.64 386.42,371.34 385.38,371.15 C384.35,370.96 382.60,370.00 381.50,369.02 C380.40,368.05 377.81,366.95 375.74,366.58 C373.34,366.15 371.40,365.02 370.37,363.44 C369.48,362.09 367.68,360.71 366.38,360.38 C365.07,360.05 364.00,359.61 364.00,359.40 C364.00,359.19 365.37,357.71 367.05,356.10 L 370.10 353.19 L 367.55 347.91 C364.76,342.14 364.31,338.49 366.25,337.58 C367.24,337.12 367.23,336.87 366.21,336.40 C365.33,336.00 365.23,335.42 365.91,334.61 C366.45,333.96 367.19,328.49 367.55,322.46 C367.91,316.43 368.61,311.07 369.10,310.55 C369.60,310.03 370.00,308.86 370.00,307.95 C370.00,307.04 371.08,305.12 372.41,303.69 C373.74,302.26 375.12,299.61 375.49,297.79 C375.85,295.98 376.80,293.07 377.59,291.32 C378.48,289.35 378.87,286.21 378.61,283.08 C378.22,278.43 378.33,278.11 380.02,279.01 C381.57,279.84 382.03,279.45 383.00,276.50 C383.63,274.58 384.68,272.67 385.33,272.26 C385.97,271.84 387.14,270.26 387.92,268.75 C388.70,267.24 389.87,266.00 390.52,266.00 C391.16,266.00 392.73,265.10 394.00,264.00 C396.57,261.77 397.46,261.44 396.44,263.10 C395.96,263.87 396.40,263.86 397.89,263.06 C399.44,262.23 399.86,261.31 399.45,259.65 C399.14,258.40 398.77,256.62 398.63,255.68 C398.49,254.75 397.84,253.44 397.19,252.79 C396.54,252.14 396.00,251.26 396.00,250.85 C396.00,250.83 396.01,250.80 396.02,250.75 C396.31,251.53 399.38,255.65 404.77,262.50 C409.14,268.05 457.64,333.96 465.48,345.00 C467.63,348.02 474.64,357.70 481.06,366.50 C487.48,375.30 493.27,383.53 493.92,384.79 C494.56,386.01 495.28,389.77 495.55,393.25 ZM 238.20 271.73 C239.75,269.51 242.15,266.09 244.32,263.00 C250.89,253.66 252.33,250.52 250.69,249.16 C249.13,247.86 247.14,249.37 243.69,254.48 C242.21,256.67 241.00,258.12 241.00,257.69 C241.00,257.27 239.18,258.60 236.96,260.66 C226.74,270.12 223.57,270.81 219.00,264.57 C217.62,262.69 212.45,256.09 207.50,249.89 C202.55,243.69 195.81,235.22 192.53,231.06 C186.16,223.00 185.01,221.88 183.88,222.58 C183.48,222.82 177.38,231.20 170.33,241.20 C163.27,251.20 152.77,266.05 147.00,274.20 C144.92,277.13 142.73,280.24 140.66,283.17 C142.62,280.38 144.68,277.47 146.61,274.75 C152.17,266.91 162.37,252.40 169.28,242.50 C181.97,224.30 187.49,217.12 186.43,220.17 C185.98,221.47 186.39,221.78 188.27,221.57 C190.39,221.34 190.66,221.66 190.38,224.11 C190.20,225.65 190.48,227.18 191.01,227.51 C191.58,227.86 191.70,227.36 191.30,226.30 C190.72,224.74 190.84,224.68 192.26,225.83 C193.67,226.97 193.87,226.88 193.74,225.14 C193.65,224.04 193.23,223.36 192.79,223.63 C192.36,223.90 192.00,223.67 192.00,223.12 C192.00,222.57 192.47,221.83 193.04,221.47 C193.61,221.12 193.81,219.86 193.48,218.67 C193.06,217.17 193.15,216.91 193.80,217.83 C194.55,218.92 194.84,218.87 195.33,217.58 C195.68,216.68 195.42,215.99 194.72,215.98 C193.88,215.97 193.93,215.70 194.88,215.09 C196.46,214.09 196.99,210.26 195.87,207.92 C195.40,206.94 195.57,206.28 196.30,206.21 C203.22,205.48 208.00,205.49 208.00,206.23 C208.00,206.73 207.51,208.04 206.92,209.15 C206.32,210.26 206.08,211.41 206.37,211.70 C207.19,212.52 210.00,209.34 210.00,207.59 C210.00,205.52 214.27,204.54 216.97,205.99 C218.70,206.91 219.63,206.82 221.57,205.55 C222.91,204.67 224.00,203.51 224.00,202.98 C224.00,202.44 225.46,201.99 227.25,201.97 C229.04,201.95 231.37,201.28 232.44,200.47 C233.51,199.66 235.45,199.00 236.76,199.00 C238.06,199.00 240.10,198.48 241.29,197.84 C242.48,197.21 245.19,196.76 247.32,196.84 C250.43,196.96 251.29,196.60 251.72,194.98 C252.02,193.82 254.97,191.44 258.67,189.37 C262.21,187.39 265.76,184.77 266.56,183.55 C268.84,180.07 282.42,174.00 287.92,174.00 C289.17,174.00 291.56,173.03 293.22,171.84 C295.69,170.09 296.61,169.90 298.12,170.84 C299.14,171.48 300.70,172.00 301.59,172.00 C302.84,172.00 303.07,172.60 302.57,174.58 C302.08,176.54 302.23,176.98 303.21,176.38 C303.92,175.94 303.70,176.69 302.71,178.04 C301.73,179.39 300.15,181.76 299.21,183.29 C298.27,184.82 292.14,193.82 285.58,203.29 C268.50,227.96 260.68,239.33 254.13,249.00 C250.96,253.68 246.27,260.42 243.70,264.00 C241.80,266.64 239.65,269.66 238.20,271.73 ZM 128.90 300.01 C125.78,304.51 121.38,310.81 117.41,316.50 C111.65,324.75 104.28,335.33 101.03,340.00 C92.73,351.98 90.55,354.46 89.10,353.56 C88.38,353.12 88.00,351.28 88.18,349.15 C88.46,346.01 88.18,345.46 86.25,345.18 C85.01,345.00 84.00,344.44 84.00,343.93 C84.00,343.42 82.70,343.00 81.11,343.00 C79.53,343.00 76.94,342.33 75.36,341.51 C71.71,339.60 68.55,339.60 66.64,341.50 C65.67,342.47 63.20,343.00 59.64,343.00 C56.61,343.00 52.98,343.44 51.57,343.98 C50.15,344.51 49.00,344.59 49.00,344.14 C49.00,343.70 48.34,343.33 47.54,343.33 C46.74,343.33 46.32,343.71 46.60,344.16 C47.52,345.65 42.24,347.44 40.70,346.16 C39.65,345.29 39.33,345.38 39.33,346.52 C39.33,347.33 39.82,348.01 40.42,348.02 C41.01,348.02 40.85,348.44 40.05,348.95 C38.10,350.18 36.94,349.33 37.73,347.25 C38.83,344.40 35.69,347.90 27.35,358.88 C31.29,353.55 34.00,349.76 34.00,349.57 C34.00,348.81 49.58,327.10 69.50,300.09 C74.45,293.38 78.95,287.13 79.50,286.20 C82.00,281.96 89.39,272.71 93.56,268.60 C97.17,265.04 99.04,263.98 102.40,263.58 C104.74,263.31 107.95,262.59 109.54,261.99 C111.12,261.38 113.50,261.16 114.81,261.49 C116.13,261.82 118.62,261.63 120.35,261.06 C122.08,260.50 129.18,259.89 136.12,259.71 L 148.74 259.39 L 148.50 262.44 C148.36,264.15 147.69,265.50 146.96,265.50 C146.25,265.50 145.46,266.13 145.20,266.89 C144.92,267.74 145.18,268.01 145.89,267.57 C146.52,267.18 146.01,268.45 144.77,270.39 C143.52,272.33 141.19,276.07 139.59,278.71 C137.98,281.34 134.57,286.65 132.00,290.50 C129.43,294.35 126.12,299.98 124.65,303.00 L 121.97 308.50 L 124.73 305.37 C125.66,304.32 127.25,302.28 128.90,300.01 ZM 473.00 212.55 C473.00,214.53 472.54,214.94 470.49,214.77 C469.11,214.66 468.11,214.32 468.27,214.03 C468.42,213.74 469.44,211.59 470.51,209.25 C471.59,206.91 473.04,205.00 473.74,205.00 C475.23,205.00 475.44,208.61 474.00,209.50 C473.45,209.84 473.00,211.21 473.00,212.55 ZM 483.50 413.62 C489.05,411.00 494.30,406.01 492.26,405.28 C491.35,404.96 491.29,404.32 492.05,402.90 C492.63,401.83 492.85,400.56 492.54,400.07 C492.24,399.59 492.90,399.42 494.00,399.71 C494.63,399.87 495.06,399.94 495.34,399.76 C494.24,406.16 490.29,410.61 483.00,413.92 C482.00,414.37 481.11,414.72 480.06,415.00 C481.23,414.67 482.23,414.22 483.50,413.62 ZM 248.30 383.11 C248.95,382.92 254.30,380.35 258.92,378.07 C253.80,380.74 249.32,382.92 248.30,383.11 Z" fill="rgb(212,150,34)"/></svg>