<svg xmlns="http://www.w3.org/2000/svg" width="500" height="500" viewBox="0 0 500 500"><path d="M 134.00 413.62 C124.36,414.87 110.42,415.32 73.00,415.58 C46.33,415.77 23.37,415.56 21.99,415.11 C10.90,411.53 4.93,402.80 6.38,392.24 C7.20,386.26 8.42,384.22 22.16,365.80 C34.37,349.42 39.03,343.87 37.73,347.25 C36.94,349.33 38.10,350.18 40.05,348.95 C40.85,348.44 41.01,348.02 40.42,348.02 C39.82,348.01 39.33,347.33 39.33,346.52 C39.33,345.38 39.65,345.29 40.70,346.16 C42.24,347.44 47.52,345.65 46.60,344.16 C46.32,343.71 46.74,343.33 47.54,343.33 C48.34,343.33 49.00,343.70 49.00,344.14 C49.00,344.59 50.15,344.51 51.57,343.98 C52.98,343.44 56.61,343.00 59.64,343.00 C63.20,343.00 65.67,342.47 66.64,341.50 C68.55,339.60 71.71,339.60 75.36,341.51 C76.94,342.33 79.53,343.00 81.11,343.00 C82.70,343.00 84.00,343.42 84.00,343.93 C84.00,344.44 85.01,345.00 86.25,345.18 C88.18,345.46 88.46,346.01 88.18,349.15 C88.00,351.28 88.38,353.12 89.10,353.56 C90.55,354.46 92.73,351.98 101.03,340.00 C104.28,335.33 111.65,324.75 117.41,316.50 C123.17,308.25 129.83,298.69 132.20,295.26 C134.56,291.83 141.23,282.35 147.00,274.20 C152.77,266.05 163.27,251.20 170.33,241.20 C177.38,231.20 183.48,222.82 183.88,222.58 C185.01,221.88 186.16,223.00 192.53,231.06 C195.81,235.22 202.55,243.69 207.50,249.89 C212.45,256.09 217.62,262.69 219.00,264.57 C223.57,270.81 226.74,270.12 236.96,260.66 C239.18,258.60 241.00,257.27 241.00,257.69 C241.00,258.12 242.21,256.67 243.69,254.48 C247.14,249.37 249.13,247.86 250.69,249.16 C252.33,250.52 250.89,253.66 244.32,263.00 C241.42,267.12 238.11,271.85 236.96,273.50 C216.34,303.18 208.06,313.88 190.76,333.11 C182.56,342.23 164.73,359.40 160.08,362.65 C158.94,363.46 158.00,364.56 158.00,365.10 C158.00,366.44 152.82,370.93 151.22,370.97 C149.67,371.01 140.00,378.11 140.00,379.21 C140.00,379.65 139.60,380.00 139.11,380.00 C138.62,380.00 134.23,382.50 129.36,385.56 C111.86,396.55 97.36,402.82 67.50,412.31 C62.74,413.82 62.69,413.87 66.50,413.34 C74.01,412.28 87.14,408.99 91.32,407.11 C93.62,406.08 96.58,404.91 97.90,404.50 C105.50,402.18 131.11,388.83 138.59,383.30 C140.29,382.04 141.97,381.31 142.34,381.67 C142.70,382.04 143.00,381.87 143.00,381.30 C143.00,380.14 151.08,374.44 152.25,374.78 C152.66,374.90 153.00,374.55 153.00,374.00 C153.00,373.45 153.71,373.00 154.57,373.00 C155.44,373.00 156.82,372.33 157.64,371.50 C158.47,370.67 158.87,370.00 158.53,370.00 C158.20,370.00 158.50,369.37 159.21,368.61 C160.14,367.60 160.70,367.54 161.23,368.36 C161.69,369.07 161.98,368.79 161.98,367.61 C162.00,365.72 164.61,363.08 166.50,363.05 C167.05,363.04 166.82,363.47 166.00,364.00 C165.18,364.53 164.98,364.98 165.57,364.98 C166.83,365.00 171.05,360.38 170.38,359.71 C170.12,359.46 171.01,359.25 172.36,359.25 C173.83,359.25 176.05,360.58 177.98,362.62 C181.36,366.21 184.59,366.90 188.01,364.76 C189.60,363.77 190.41,363.78 192.04,364.79 C193.16,365.49 194.47,365.82 194.96,365.53 C195.44,365.23 196.06,365.55 196.34,366.24 C196.74,367.24 196.86,367.24 196.92,366.25 C197.01,364.83 201.59,364.53 202.43,365.89 C203.47,367.57 210.57,368.22 226.75,368.12 C241.85,368.02 243.15,368.15 245.04,370.04 C247.67,372.67 254.51,372.14 256.60,369.17 C257.99,367.18 262.62,367.20 261.39,369.18 C261.06,369.70 261.41,370.05 262.15,369.95 C265.72,369.46 266.88,370.05 266.47,372.14 C266.25,373.31 265.94,374.38 265.78,374.52 C265.14,375.08 248.95,383.03 248.25,383.12 C247.84,383.17 245.71,384.13 243.51,385.25 C239.41,387.34 229.69,391.05 215.25,396.03 C197.14,402.27 160.92,410.11 134.00,413.62 ZM 483.50 413.62 C478.72,415.88 477.61,415.97 458.00,415.84 C446.73,415.76 436.15,415.53 434.50,415.33 C432.85,415.12 426.77,414.26 421.00,413.40 C379.60,407.30 337.73,387.42 305.60,358.62 C300.94,354.44 300.80,354.18 302.77,353.12 C303.91,352.51 305.44,351.44 306.17,350.74 C306.90,350.03 309.75,347.67 312.50,345.48 C336.59,326.31 353.70,306.16 385.93,259.06 C402.91,234.23 410.04,223.99 412.80,220.45 C416.21,216.07 409.16,229.21 401.99,240.60 C398.69,245.83 396.00,250.44 396.00,250.85 C396.00,251.26 396.54,252.14 397.19,252.79 C397.84,253.44 398.49,254.75 398.63,255.68 C398.77,256.62 399.14,258.40 399.45,259.65 C399.86,261.31 399.44,262.23 397.89,263.06 C396.40,263.86 395.96,263.87 396.44,263.10 C397.46,261.44 396.57,261.77 394.00,264.00 C392.73,265.10 391.16,266.00 390.52,266.00 C389.87,266.00 388.70,267.24 387.92,268.75 C387.14,270.26 385.97,271.84 385.33,272.26 C384.68,272.67 383.63,274.58 383.00,276.50 C382.03,279.45 381.57,279.84 380.02,279.01 C378.33,278.11 378.22,278.43 378.61,283.08 C378.87,286.21 378.48,289.35 377.59,291.32 C376.80,293.07 375.85,295.98 375.49,297.79 C375.12,299.61 373.74,302.26 372.41,303.69 C371.08,305.12 370.00,307.04 370.00,307.95 C370.00,308.86 369.60,310.03 369.10,310.55 C368.61,311.07 367.91,316.43 367.55,322.46 C367.19,328.49 366.45,333.96 365.91,334.61 C365.23,335.42 365.33,336.00 366.21,336.40 C367.23,336.87 367.24,337.12 366.25,337.58 C364.31,338.49 364.76,342.14 367.55,347.91 L 370.10 353.19 L 367.05 356.10 C365.37,357.71 364.00,359.19 364.00,359.40 C364.00,359.61 365.07,360.05 366.38,360.38 C367.68,360.71 369.48,362.09 370.37,363.44 C371.40,365.02 373.34,366.15 375.74,366.58 C377.81,366.95 380.40,368.05 381.50,369.02 C382.60,370.00 384.35,370.96 385.38,371.15 C386.42,371.34 388.42,373.64 389.83,376.26 C391.82,379.94 393.18,381.23 395.86,381.97 C397.76,382.50 399.69,382.69 400.15,382.40 C400.62,382.12 402.00,382.59 403.22,383.44 C405.63,385.13 409.00,385.53 409.00,384.13 C409.00,383.65 410.81,382.97 413.01,382.61 C416.74,382.02 421.10,383.56 423.00,386.14 C423.28,386.51 425.36,387.56 427.62,388.47 C429.88,389.37 432.74,391.27 433.97,392.68 C435.95,394.96 436.71,395.17 440.75,394.62 C443.25,394.28 445.89,393.51 446.61,392.90 C447.95,391.80 456.69,392.64 455.57,393.77 C454.89,394.45 462.65,399.00 464.48,399.00 C465.18,399.00 466.35,398.28 467.08,397.40 C468.08,396.20 469.39,395.97 472.42,396.45 C474.63,396.80 476.78,397.64 477.20,398.30 C477.78,399.20 477.97,399.18 477.98,398.19 C477.99,397.47 478.45,397.16 479.00,397.50 C479.55,397.84 480.00,397.67 480.00,397.12 C480.00,396.57 481.01,396.30 482.25,396.54 C485.75,397.19 489.11,399.26 488.65,400.47 C488.42,401.08 489.06,401.57 490.09,401.57 C491.90,401.57 491.90,401.52 490.08,399.54 C488.70,398.03 488.44,396.92 489.08,395.25 C489.59,393.90 489.56,393.00 488.99,393.00 C488.44,393.00 488.52,391.96 489.17,390.53 C489.79,389.17 490.64,388.28 491.06,388.54 C491.48,388.80 492.04,388.45 492.29,387.76 C493.31,384.98 495.34,389.08 495.67,394.58 C495.98,399.83 495.86,400.20 494.00,399.71 C492.90,399.42 492.24,399.59 492.54,400.07 C492.85,400.56 492.63,401.83 492.05,402.90 C491.29,404.32 491.35,404.96 492.26,405.28 C494.30,406.01 489.05,411.00 483.50,413.62 Z" fill="rgb(178,108,14)"/></svg>