<svg xmlns="http://www.w3.org/2000/svg" width="500" height="500" viewBox="0 0 500 500"><path d="M 265.89 374.34 C270.77,371.66 275.09,369.14 276.41,368.09 C278.56,366.37 281.93,363.99 283.91,362.80 C287.65,360.54 308.96,344.47 314.92,339.41 C328.25,328.10 350.45,303.33 362.81,286.00 C372.36,272.61 377.92,263.67 377.34,262.65 C376.98,262.02 377.03,261.82 377.46,262.20 C377.89,262.59 378.79,262.35 379.47,261.67 C381.43,259.71 392.00,243.04 392.00,241.91 C392.00,241.34 392.56,241.21 393.25,241.60 C393.94,242.00 394.17,241.95 393.76,241.50 C393.35,241.05 393.58,239.99 394.26,239.15 C395.25,237.93 395.25,237.77 394.25,238.37 C392.71,239.29 392.66,238.50 394.10,235.81 C394.95,234.23 394.92,233.93 393.97,234.52 C392.10,235.68 393.95,232.78 397.75,228.62 C400.82,225.25 402.18,222.15 400.00,223.50 C399.45,223.84 399.00,223.62 399.00,223.02 C399.00,222.42 398.02,222.84 396.81,223.96 C393.95,226.63 390.50,226.55 388.56,223.78 C387.27,221.94 385.84,221.50 380.15,221.18 C373.43,220.80 373.24,220.86 371.07,223.90 C369.17,226.57 368.25,227.00 364.45,227.00 C359.74,227.00 352.00,224.41 352.00,222.83 C352.00,222.31 351.55,222.16 351.00,222.50 C350.45,222.84 350.00,222.64 350.00,222.06 C350.00,221.48 348.53,221.00 346.72,221.00 C344.92,221.00 342.43,220.29 341.18,219.42 C339.36,218.14 338.31,218.04 335.80,218.92 C333.29,219.79 332.34,219.71 331.01,218.51 C328.89,216.59 322.74,216.57 319.06,218.47 C317.50,219.28 315.74,221.30 315.16,222.97 C313.94,226.48 312.52,226.83 311.00,224.00 C310.31,222.71 308.91,222.00 307.03,222.00 C304.96,222.00 303.53,221.15 302.00,219.00 C300.83,217.35 298.99,216.00 297.93,216.00 C296.87,216.00 296.00,215.35 296.00,214.56 C296.00,213.77 295.52,212.82 294.94,212.46 C293.44,211.54 288.80,212.86 289.51,214.02 C289.84,214.55 289.42,214.71 288.55,214.38 C287.70,214.05 287.00,214.31 287.00,214.95 C287.00,215.59 286.48,215.80 285.85,215.40 C285.16,214.98 284.96,215.13 285.36,215.77 C285.72,216.36 284.56,217.88 282.76,219.14 C280.97,220.40 279.35,221.78 279.16,222.22 C278.98,222.66 278.35,222.72 277.76,222.35 C277.14,221.97 276.98,222.16 277.38,222.81 C277.76,223.42 277.20,224.80 276.14,225.86 C272.83,229.17 264.00,240.89 264.00,241.97 C264.00,242.54 263.52,243.00 262.94,243.00 C262.36,243.00 262.16,243.45 262.50,244.00 C262.84,244.55 262.74,245.00 262.27,245.00 C261.81,245.00 260.57,246.45 259.52,248.23 C258.47,250.01 256.77,252.37 255.74,253.48 C254.71,254.59 249.77,261.35 244.77,268.50 C234.17,283.65 223.89,297.36 222.78,297.83 C222.35,298.02 222.00,298.63 222.00,299.20 C222.00,299.76 218.29,304.87 213.75,310.55 C209.21,316.22 204.38,322.33 203.00,324.11 C199.07,329.21 167.92,360.25 167.32,359.66 C167.03,359.36 165.71,360.29 164.40,361.71 C163.08,363.13 162.00,363.84 162.00,363.30 C162.00,362.75 166.55,357.85 172.11,352.40 C183.63,341.11 193.14,330.97 202.67,319.51 C213.13,307.13 221.64,295.55 236.96,273.50 C237.25,273.08 237.67,272.48 238.20,271.73 C239.65,269.66 241.80,266.64 243.70,264.00 C246.27,260.42 250.96,253.68 254.13,249.00 C260.68,239.33 268.50,227.96 285.58,203.29 C292.14,193.82 298.27,184.82 299.21,183.29 C300.15,181.76 301.73,179.39 302.71,178.04 C303.70,176.69 303.92,175.94 303.21,176.38 C302.23,176.98 302.08,176.54 302.57,174.58 C303.07,172.60 302.84,172.00 301.59,172.00 C300.70,172.00 299.14,171.48 298.12,170.84 C296.61,169.90 295.69,170.09 293.22,171.84 C291.56,173.03 289.17,174.00 287.92,174.00 C282.42,174.00 268.84,180.07 266.56,183.55 C265.76,184.77 262.21,187.39 258.67,189.37 C254.97,191.44 252.02,193.82 251.72,194.98 C251.29,196.60 250.43,196.96 247.32,196.84 C245.19,196.76 242.48,197.21 241.29,197.84 C240.10,198.48 238.06,199.00 236.76,199.00 C235.45,199.00 233.51,199.66 232.44,200.47 C231.37,201.28 229.04,201.95 227.25,201.97 C225.46,201.99 224.00,202.44 224.00,202.98 C224.00,203.51 222.91,204.67 221.57,205.55 C219.63,206.82 218.70,206.91 216.97,205.99 C214.27,204.54 210.00,205.52 210.00,207.59 C210.00,209.34 207.19,212.52 206.37,211.70 C206.08,211.41 206.32,210.26 206.92,209.15 C207.51,208.04 208.00,206.73 208.00,206.23 C208.00,205.49 203.22,205.48 196.30,206.21 C195.57,206.28 195.40,206.94 195.87,207.92 C196.99,210.26 196.46,214.09 194.88,215.09 C193.93,215.70 193.88,215.97 194.72,215.98 C195.42,215.99 195.68,216.68 195.33,217.58 C194.84,218.87 194.55,218.92 193.80,217.83 C193.15,216.91 193.06,217.17 193.48,218.67 C193.81,219.86 193.61,221.12 193.04,221.47 C192.47,221.83 192.00,222.57 192.00,223.12 C192.00,223.67 192.36,223.90 192.79,223.63 C193.23,223.36 193.65,224.04 193.74,225.14 C193.87,226.88 193.67,226.97 192.26,225.83 C190.84,224.68 190.72,224.74 191.30,226.30 C191.70,227.36 191.58,227.86 191.01,227.51 C190.48,227.18 190.20,225.65 190.38,224.11 C190.66,221.66 190.39,221.34 188.27,221.57 C186.39,221.78 185.98,221.47 186.43,220.17 C187.49,217.12 181.97,224.30 169.28,242.50 C162.37,252.40 152.17,266.91 146.61,274.75 C144.68,277.47 142.62,280.38 140.66,283.17 C136.99,288.39 133.71,293.06 132.20,295.26 C131.46,296.33 130.31,297.99 128.90,300.01 C127.25,302.28 125.66,304.32 124.73,305.37 L 121.97 308.50 L 124.65 303.00 C126.12,299.98 129.43,294.35 132.00,290.50 C134.57,286.65 137.98,281.34 139.59,278.71 C141.19,276.07 143.52,272.33 144.77,270.39 C146.01,268.45 146.52,267.18 145.89,267.57 C145.18,268.01 144.92,267.74 145.20,266.89 C145.46,266.13 146.25,265.50 146.96,265.50 C147.69,265.50 148.36,264.15 148.50,262.44 L 148.74 259.39 L 136.12 259.71 C129.18,259.89 122.08,260.50 120.35,261.06 C118.62,261.63 116.13,261.82 114.81,261.49 C113.50,261.16 111.12,261.38 109.54,261.99 C107.95,262.59 104.74,263.31 102.40,263.58 C99.04,263.98 97.17,265.04 93.56,268.60 C91.18,270.94 87.76,274.96 84.79,278.76 C85.52,277.68 86.00,276.83 86.00,276.58 C86.00,276.18 87.95,273.29 90.33,270.17 C94.15,265.15 103.50,251.91 126.23,219.33 C135.92,205.42 140.77,200.01 145.41,197.90 C152.69,194.60 160.87,195.79 167.30,201.09 C172.40,205.30 182.16,217.65 181.79,219.44 C181.63,220.22 181.95,220.98 182.50,221.11 C183.47,221.35 187.17,216.58 196.55,203.00 C199.03,199.43 203.77,192.68 207.09,188.00 C210.42,183.32 213.89,178.38 214.81,177.00 C215.73,175.62 220.96,168.20 226.42,160.50 C231.89,152.80 239.22,142.26 242.73,137.09 C252.10,123.23 254.35,120.67 259.68,117.82 C270.52,112.02 279.74,113.64 289.00,122.96 C296.50,130.52 317.53,156.98 317.36,158.65 C317.17,160.54 318.75,160.33 320.44,158.25 C339.19,135.11 340.46,127.55 327.23,117.82 C289.04,89.73 287.73,88.48 289.99,82.52 C291.29,79.11 293.53,78.11 311.50,72.91 C320.30,70.36 334.70,66.16 343.50,63.58 C352.30,60.99 361.52,58.29 364.00,57.58 C393.63,49.05 405.14,45.66 408.50,44.51 C422.50,39.69 430.55,37.80 434.70,38.37 C444.81,39.76 452.57,45.12 457.04,53.81 C459.48,58.54 459.63,59.58 470.00,147.50 C471.63,161.25 473.61,177.68 474.42,184.00 C475.22,190.32 476.19,200.00 476.56,205.50 C477.19,214.85 477.10,215.62 475.14,217.38 C471.16,220.97 466.82,219.23 452.04,208.12 C444.40,202.38 437.24,197.76 435.46,197.43 C432.08,196.79 425.87,198.91 422.70,201.77 C421.68,202.70 420.20,204.99 419.42,206.85 C417.69,210.98 417.67,211.32 419.20,210.37 C419.86,209.97 419.12,211.85 417.55,214.57 C416.23,216.85 412.57,222.97 408.68,229.44 C412.68,222.44 415.08,217.52 412.80,220.45 C410.04,223.99 402.91,234.23 385.93,259.06 C353.70,306.16 336.59,326.31 312.50,345.48 C309.75,347.67 306.90,350.03 306.17,350.74 C305.44,351.44 303.91,352.51 302.77,353.12 C301.11,354.01 300.95,354.34 303.73,356.93 C303.23,356.60 302.74,356.37 302.23,356.23 C299.43,355.47 295.88,357.51 285.77,363.33 C285.38,363.56 284.98,363.79 284.57,364.02 C278.65,367.43 271.92,371.14 265.87,374.37 C265.88,374.36 265.88,374.35 265.89,374.34 ZM 473.00 212.55 C473.00,211.21 473.45,209.84 474.00,209.50 C475.44,208.61 475.23,205.00 473.74,205.00 C473.04,205.00 471.59,206.91 470.51,209.25 C469.44,211.59 468.42,213.74 468.27,214.03 C468.11,214.32 469.11,214.66 470.49,214.77 C472.54,214.94 473.00,214.53 473.00,212.55 ZM 174.02 232.31 C174.03,234.09 174.21,234.22 175.00,233.00 C176.27,231.03 176.27,228.71 175.00,229.50 C174.45,229.84 174.01,231.10 174.02,232.31 ZM 389.78 406.24 C400.11,409.45 410.57,411.87 421.00,413.40 C422.84,413.68 424.71,413.95 426.46,414.20 C413.76,412.87 403.33,410.52 389.78,406.24 ZM 334.26 380.35 C350.17,390.53 367.37,398.78 385.04,404.71 C384.21,404.43 383.36,404.15 382.50,403.86 C368.36,399.11 350.05,390.41 337.59,382.52 C336.54,381.86 335.43,381.13 334.26,380.35 ZM 461.50 415.86 C473.17,415.93 477.11,415.83 480.06,415.00 C481.11,414.72 482.00,414.37 483.00,413.92 C485.99,412.56 488.42,411.01 490.32,409.21 C488.10,411.38 485.19,413.14 481.57,414.53 C478.18,415.82 475.26,416.11 461.50,415.86 ZM 396.36 250.02 C396.24,250.80 396.63,251.74 398.02,253.73 C396.83,252.11 396.15,251.10 396.02,250.75 C396.07,250.61 396.18,250.36 396.36,250.02 ZM 79.87 285.59 C79.74,285.80 79.61,286.00 79.50,286.20 C78.95,287.13 74.45,293.38 69.50,300.09 C74.45,293.38 78.95,287.12 79.50,286.18 C79.59,286.02 79.72,285.82 79.87,285.59 ZM 400.07 243.68 C399.80,244.12 399.55,244.54 399.30,244.95 C399.55,244.53 399.81,244.11 400.07,243.68 Z" fill="rgb(239,192,68)"/><path d="M 0.00 250.00 L 0.00 0.00 L 250.00 0.00 L 500.00 0.00 L 500.00 250.00 L 500.00 500.00 L 250.00 500.00 L 0.00 500.00 L 0.00 250.00 ZM 134.00 413.62 C160.92,410.11 197.14,402.27 215.25,396.03 C229.69,391.05 239.41,387.34 243.51,385.25 C245.71,384.13 247.95,383.11 248.50,382.99 C250.85,382.46 270.12,372.33 284.57,364.02 C301.77,354.13 301.20,354.23 307.46,360.19 C312.41,364.89 328.02,376.46 337.59,382.52 C350.05,390.41 368.36,399.11 382.50,403.86 C408.78,412.70 422.27,414.95 453.28,415.69 C474.25,416.18 477.59,416.05 481.57,414.53 C491.71,410.65 496.31,403.76 495.58,393.54 C495.32,389.98 494.58,386.04 493.92,384.79 C493.27,383.53 487.48,375.30 481.06,366.50 C474.64,357.70 467.63,348.02 465.48,345.00 C457.64,333.96 409.14,268.05 404.77,262.50 C395.64,250.90 395.61,250.85 397.02,248.64 C399.33,245.01 414.53,219.79 417.55,214.57 C419.12,211.85 419.86,209.97 419.20,210.37 C417.67,211.32 417.69,210.98 419.42,206.85 C420.20,204.99 421.68,202.70 422.70,201.77 C425.87,198.91 432.08,196.79 435.46,197.43 C437.24,197.76 444.40,202.38 452.04,208.12 C466.82,219.23 471.16,220.97 475.14,217.38 C477.10,215.62 477.19,214.85 476.56,205.50 C476.19,200.00 475.22,190.32 474.42,184.00 C473.61,177.68 471.63,161.25 470.00,147.50 C459.63,59.58 459.48,58.54 457.04,53.81 C452.57,45.12 444.81,39.76 434.70,38.37 C430.55,37.80 422.50,39.69 408.50,44.51 C405.14,45.66 393.63,49.05 364.00,57.58 C361.52,58.29 352.30,60.99 343.50,63.58 C334.70,66.16 320.30,70.36 311.50,72.91 C293.53,78.11 291.29,79.11 289.99,82.52 C287.73,88.48 289.04,89.73 327.23,117.82 C340.46,127.55 339.19,135.11 320.44,158.25 C318.75,160.33 317.17,160.54 317.36,158.65 C317.53,156.98 296.50,130.52 289.00,122.96 C279.74,113.64 270.52,112.02 259.68,117.82 C254.35,120.67 252.10,123.23 242.73,137.09 C239.22,142.26 231.89,152.80 226.42,160.50 C220.96,168.20 215.73,175.62 214.81,177.00 C213.89,178.38 210.42,183.32 207.09,188.00 C203.77,192.68 199.03,199.43 196.55,203.00 C187.17,216.58 183.47,221.35 182.50,221.11 C181.95,220.98 181.63,220.22 181.79,219.44 C182.16,217.65 172.40,205.30 167.30,201.09 C160.87,195.79 152.69,194.60 145.41,197.90 C140.77,200.01 135.92,205.42 126.23,219.33 C103.50,251.91 94.15,265.15 90.33,270.17 C87.95,273.29 86.00,276.18 86.00,276.58 C86.00,276.98 84.76,278.92 83.25,280.89 C81.74,282.86 80.05,285.24 79.50,286.18 C78.95,287.12 74.45,293.38 69.50,300.09 C49.58,327.10 34.00,348.81 34.00,349.57 C34.00,349.84 28.60,357.27 22.00,366.08 C8.44,384.18 7.20,386.26 6.38,392.24 C4.93,402.80 10.90,411.53 21.99,415.11 C23.37,415.56 46.33,415.77 73.00,415.58 C110.42,415.32 124.36,414.87 134.00,413.62 ZM 174.02 232.31 C174.01,231.10 174.45,229.84 175.00,229.50 C176.27,228.71 176.27,231.03 175.00,233.00 C174.21,234.22 174.03,234.09 174.02,232.31 Z" fill="rgb(254,254,253)"/></svg>